PathFileType	4	(X/Y/Z)	Run_200 01
DataRate	CameraRate	NumFrames	NumMarkers	Units	OrigDataRate	OrigDataStartFrame	OrigNumFrames
120	120	4	42	mm	120	286	128
Frame#	Time	LASI			RASI			LPSI			RPSI			RTH1			RTH2			RTH3			LTH1			LTH2			LTH3			RTB2			RTB3			LTB1			LTB2			LTB3			RCAL			RTOE			RMT5			LCAL			LTOE			LMT5			LACR			RACR			CLAV			C7			RUA1			RUA2			RUA3			RLEL			RMEL			LUA1			LUA2			LUA3			LLEL			LMEL			RFAsuperior			RFAradius			RFAulna			LFAsuperior			LFAradius			LFAulna			RTB1		
		X1	Y1	Z1	X2	Y2	Z2	X3	Y3	Z3	X4	Y4	Z4	X5	Y5	Z5	X6	Y6	Z6	X7	Y7	Z7	X8	Y8	Z8	X9	Y9	Z9	X10	Y10	Z10	X11	Y11	Z11	X12	Y12	Z12	X13	Y13	Z13	X14	Y14	Z14	X15	Y15	Z15	X16	Y16	Z16	X17	Y17	Z17	X18	Y18	Z18	X19	Y19	Z19	X20	Y20	Z20	X21	Y21	Z21	X22	Y22	Z22	X23	Y23	Z23	X24	Y24	Z24	X25	Y25	Z25	X26	Y26	Z26	X27	Y27	Z27	X28	Y28	Z28	X29	Y29	Z29	X30	Y30	Z30	X31	Y31	Z31	X32	Y32	Z32	X33	Y33	Z33	X34	Y34	Z34	X35	Y35	Z35	X36	Y36	Z36	X37	Y37	Z37	X38	Y38	Z38	X39	Y39	Z39	X40	Y40	Z40	X41	Y41	Z41	X42	Y42	Z42	

286	  2.383333	477.716670	966.255668	-436.868757	465.681646	979.019878	-182.610325	302.474066	984.842434	-366.533616	298.543761	989.229306	-281.918703	464.711299	802.423164	-150.006609	553.155128	701.302917	-184.773026	502.280367	561.845377	-186.576604	467.807081	819.634065	-475.669350	547.396314	723.170727	-462.558679	511.816237	577.288158	-466.365644	487.422768	302.336464	-205.173405	454.597387	195.938559	-277.525491	450.351146	384.927774	-391.099798	337.614235	371.970990	-442.326488	270.978334	325.937222	-370.335053	296.106239	 98.284494	-269.575866	515.371834	 68.528495	-285.894408	486.060972	 62.993184	-189.606929	116.954623	378.574240	-371.065336	200.720424	178.452436	-362.974922	162.626480	189.458616	-449.000023	465.881932	1406.673117	-492.203428	443.329402	1401.406318	-105.977801	550.285843	1369.581907	-268.447092	425.984875	1470.840057	-301.907695	410.774202	1298.974224	-38.310379	426.817126	1231.191757	-30.158186	326.444441	1224.856754	  2.111442	352.032412	1150.485070	 53.625015	306.132712	1114.086135	-14.140057	425.039384	1339.809025	-547.016748	346.191987	1292.065376	-532.899760	391.261924	1258.180627	-587.468303	347.260914	1164.149463	-630.064014	290.589439	1131.785133	-567.745145	432.796487	1130.098302	 38.797830	575.821072	1089.561767	-33.199113	547.989990	1028.858833	-12.660133	415.561311	1150.074433	-606.334603	535.857246	1113.129514	-485.367399	529.414334	1054.748728	-518.366602	538.558400	354.779751	-262.882629	
287	  2.391667	476.026981	964.776286	-435.729794	462.711730	976.770421	-181.143088	301.087422	984.067019	-367.421829	297.153882	988.364378	-282.337408	460.126267	800.257190	-149.782047	546.994808	697.386276	-183.538988	493.925262	558.889783	-186.022520	468.295937	818.353112	-475.361066	552.376280	724.925330	-460.472455	520.689406	578.185325	-465.109859	474.295385	299.679784	-204.526726	440.080634	193.978208	-277.014579	463.286885	387.255006	-390.070026	351.602093	372.030983	-442.466288	284.133726	326.213773	-370.730618	279.540181	 98.551041	-269.643426	498.695476	 68.084419	-285.735058	469.147105	 62.770793	-189.429824	128.539080	376.613428	-374.973162	216.822124	178.631576	-361.931708	179.840485	187.277556	-448.776452	462.597912	1405.553502	-492.013402	444.671670	1398.441893	-105.927294	549.821241	1366.928488	-269.309175	425.146782	1468.633071	-301.445932	413.580174	1295.379306	-38.732921	431.411316	1227.964142	-30.640334	331.267085	1219.034681	  1.470184	360.322824	1145.283158	 53.491974	313.900776	1107.504624	-13.116811	420.036470	1339.114937	-546.027866	341.637283	1291.128584	-529.174255	384.631666	1257.643159	-585.880834	339.297032	1164.087677	-627.435447	284.324105	1131.301735	-563.615873	441.257436	1126.228347	 36.822917	583.841260	1087.537320	-37.372066	556.777523	1026.666743	-16.096367	408.064469	1148.779684	-605.432250	531.900671	1108.763965	-488.417003	523.171744	1050.501799	-522.132413	527.603265	350.843279	-261.743772	
288	  2.400000	474.603101	964.579197	-434.628168	460.266353	975.518223	-180.658807	299.654376	983.466554	-367.612136	295.792475	988.212839	-282.361706	455.724718	798.958205	-149.679085	540.638964	694.453905	-182.697388	485.183424	556.753544	-185.195874	468.442306	817.677098	-475.341073	556.504080	727.244522	-458.959256	528.754552	579.908013	-463.757402	461.040379	297.951129	-203.809962	425.589125	192.904202	-276.455119	476.292971	389.163673	-388.800428	365.630007	371.920860	-442.486462	297.624958	325.733489	-371.113127	263.222364	 99.033977	-269.688477	482.150314	 67.659981	-285.551780	452.311159	 62.519061	-189.239009	140.423615	372.972199	-378.627164	233.695873	177.617131	-360.882852	197.833925	183.888004	-448.430703	459.527394	1405.288958	-491.995536	446.401130	1396.629590	-106.025458	549.559437	1365.200697	-270.433834	424.368183	1467.465228	-301.276950	416.528959	1292.804716	-39.395656	435.787254	1225.873979	-31.265517	335.853627	1214.407919	  0.239230	367.840069	1140.949710	 52.883487	321.522114	1102.396835	-13.058104	415.110117	1339.328306	-545.182734	337.046295	1291.270179	-526.147274	378.068976	1257.941114	-584.581953	331.188535	1164.731661	-625.398314	278.232782	1131.869900	-559.540264	448.991616	1122.865571	 34.877875	591.458338	1087.378464	-42.281279	565.346403	1026.203509	-20.970069	400.088974	1147.579723	-605.131716	527.794353	1106.473606	-491.696958	516.940924	1048.303906	-525.702470	516.002427	347.978758	-260.427454	
289	  2.408333	473.498604	965.255513	-434.201582	458.544669	975.424839	-181.091907	298.279141	983.383698	-367.421984	294.328284	988.756790	-282.278627	451.484020	798.354550	-149.696645	534.227754	692.323852	-182.087639	475.985970	555.250792	-184.261771	468.655326	818.077823	-475.546062	559.824854	730.294387	-458.179770	536.034508	582.737160	-462.368472	447.466078	296.746618	-203.208571	410.814505	192.381557	-276.158985	489.120042	390.844092	-387.213803	379.482532	371.689723	-442.277827	311.358576	324.526442	-371.419883	247.028890	 99.695268	-269.719327	465.567703	 67.270718	-285.319133	435.486449	 62.312497	-189.036079	152.470847	367.627888	-381.874499	251.191435	175.570548	-359.807112	216.772968	179.466824	-448.001518	456.671784	1405.868238	-492.262485	448.392752	1395.932063	-106.214687	549.455267	1364.602568	-271.900971	423.901956	1467.420807	-301.243677	419.744465	1291.222981	-40.263364	440.042613	1224.770408	-32.162186	340.369615	1210.963092	 -1.226588	374.713807	1137.491878	 51.812094	328.893697	1098.787635	-13.928815	410.434786	1340.394537	-544.597732	332.480558	1292.551048	-523.773375	371.606314	1259.163327	-583.460964	323.074637	1166.117416	-623.849980	272.412943	1133.541692	-555.657052	456.120498	1120.263639	 32.764382	598.451472	1089.028648	-47.812657	573.578790	1027.382118	-26.992925	391.703004	1146.928720	-604.925499	523.407072	1106.192236	-495.172357	510.831945	1048.065032	-528.931527	503.551459	345.889696	-259.259881	
